<?xml version="1.0" encoding="UTF-8"?>
<svg width="504px" height="504px" viewBox="0 0 504 504" version="1.1" xmlns="http://www.w3.org/2000/svg" xmlns:xlink="http://www.w3.org/1999/xlink">
    <!-- Generator: Sketch 41.2 (35397) - http://www.bohemiancoding.com/sketch -->
    <title>wine-menu</title>
    <desc>Created with Sketch.</desc>
    <defs></defs>
    <g id="Page-1" stroke="none" stroke-width="1" fill="none" fill-rule="evenodd">
        <g id="wine-menu">
            <circle id="Oval" fill="#324A5E" cx="252" cy="252" r="252"></circle>
            <g id="Group" transform="translate(86.000000, 126.000000)" fill="#FF7058">
                <path d="M163.2,266.1 L2.8,266.1 C1.2,266.1 0,264.8 0,263.3 L0,3.5 C0,1.9 1.3,0.7 2.8,0.7 L163.2,0.7 C164.8,0.7 166,2 166,3.5 L166,263.3 C166,264.9 164.7,266.1 163.2,266.1 Z" id="Shape"></path>
                <path d="M329.2,266.1 L168.8,266.1 C167.2,266.1 166,264.8 166,263.3 L166,3.5 C166,1.9 167.3,0.7 168.8,0.7 L329.2,0.7 C330.8,0.7 332,2 332,3.5 L332,263.3 C332,264.9 330.8,266.1 329.2,266.1 Z" id="Shape"></path>
            </g>
            <rect id="Rectangle-path" fill="#FFFFFF" x="103.8" y="144.7" width="148.2" height="229.4"></rect>
            <rect id="Rectangle-path" fill="#ACB3BA" x="252" y="144.7" width="148.2" height="229.4"></rect>
            <polygon id="Shape" fill="#E6E9EE" points="252 374.1 369.6 341.3 369.6 111.9 252 144.7"></polygon>
            <g id="Group" transform="translate(271.000000, 166.000000)" fill="#ACB3BA">
                <rect id="Rectangle-path" transform="translate(39.841510, 13.805292) rotate(254.389093) translate(-39.841510, -13.805292) " x="37.6415362" y="-26.5437321" width="4.39994812" height="80.6980486"></rect>
                <rect id="Rectangle-path" transform="translate(39.764894, 39.076208) rotate(74.389093) translate(-39.764894, -39.076208) " x="37.5649197" y="-1.27281643" width="4.39994812" height="80.6980486"></rect>
                <rect id="Rectangle-path" transform="translate(39.801518, 64.338447) rotate(74.389093) translate(-39.801518, -64.338447) " x="37.6015442" y="23.9894225" width="4.39994812" height="80.6980486"></rect>
                <rect id="Rectangle-path" transform="translate(39.731576, 89.617009) rotate(74.389093) translate(-39.731576, -89.617009) " x="37.5316023" y="49.2679844" width="4.39994812" height="80.6980486"></rect>
                <rect id="Rectangle-path" transform="translate(39.758873, 114.888075) rotate(74.389093) translate(-39.758873, -114.888075) " x="37.5588988" y="74.5390511" width="4.39994812" height="80.6980486"></rect>
                <rect id="Rectangle-path" transform="translate(39.805519, 140.140354) rotate(74.389093) translate(-39.805519, -140.140354) " x="37.6055453" y="99.79133" width="4.39994812" height="80.6980486"></rect>
            </g>
            <path d="M207.5,226.4 L207.5,192.8 L148.3,192.8 L148.3,226.4 C148.3,241.8 160,254.4 175,255.9 L175,302.5 C175,311.4 167.8,318.7 158.8,318.7 C154.7,318.7 151.4,322 151.4,326.1 L204.5,326.1 C204.5,322 201.2,318.7 197.1,318.7 L197.1,318.7 C188.2,318.7 180.9,311.5 180.9,302.5 L180.9,255.9 C195.8,254.4 207.5,241.7 207.5,226.4 Z" id="Shape" fill="#4CDBC4"></path>
        </g>
    </g>
</svg>