<?xml version="1.0" encoding="UTF-8"?>
<svg width="510px" height="510px" viewBox="0 0 510 510" version="1.1" xmlns="http://www.w3.org/2000/svg" xmlns:xlink="http://www.w3.org/1999/xlink">
    <!-- Generator: Sketch 41.2 (35397) - http://www.bohemiancoding.com/sketch -->
    <title>menu (1)</title>
    <desc>Created with Sketch.</desc>
    <defs></defs>
    <g id="Page-1" stroke="none" stroke-width="1" fill="none" fill-rule="evenodd">
        <g id="menu-(1)">
            <circle id="Oval" fill="#76D95B" cx="254.644" cy="254.644" r="254.644"></circle>
            <path d="M243.793,401.801 L70.866,401.801 C64.763,401.801 60.016,397.054 60.016,390.951 L60.016,117.997 C60.016,111.894 64.763,107.147 70.866,107.147 L243.793,107.147 C249.896,107.147 254.643,111.894 254.643,117.997 L254.643,390.951 C254.644,397.054 249.897,401.801 243.793,401.801 Z" id="Shape" fill="#F0582F"></path>
            <path d="M438.421,401.801 L265.494,401.801 C259.391,401.801 254.644,397.054 254.644,390.951 L254.644,117.997 C254.644,111.894 259.391,107.147 265.494,107.147 L438.421,107.147 C444.524,107.147 449.271,111.894 449.271,117.997 L449.271,390.951 C449.271,397.054 444.185,401.801 438.421,401.801 Z" id="Shape" fill="#D64E3C"></path>
            <rect id="Rectangle-path" fill="#FFFFFF" x="77.987" y="126.813" width="176.657" height="255.661"></rect>
            <rect id="Rectangle-path" fill="#F1F1F3" x="254.644" y="126.813" width="176.657" height="255.661"></rect>
            <g id="Group" transform="translate(273.000000, 156.000000)" fill="#CED5D7">
                <rect id="Rectangle-path" x="113.204" y="0.991" width="26.109" height="13.224"></rect>
                <rect id="Rectangle-path" x="0.632" y="0.991" width="78.665" height="13.224"></rect>
                <rect id="Rectangle-path" x="0.632" y="29.134" width="53.234" height="13.224"></rect>
                <rect id="Rectangle-path" x="113.204" y="78.299" width="26.109" height="13.224"></rect>
                <rect id="Rectangle-path" x="0.632" y="78.299" width="78.665" height="13.224"></rect>
                <rect id="Rectangle-path" x="0.632" y="106.103" width="53.234" height="13.224"></rect>
                <rect id="Rectangle-path" x="113.204" y="155.269" width="26.109" height="13.224"></rect>
                <rect id="Rectangle-path" x="0.632" y="155.269" width="78.665" height="13.224"></rect>
                <rect id="Rectangle-path" x="0.632" y="183.073" width="53.234" height="13.224"></rect>
            </g>
            <g id="Group" transform="translate(129.000000, 180.000000)" fill="#FCCE68">
                <path d="M3.917,2.421 C3.917,1.743 4.595,1.065 5.273,1.065 C6.29,1.065 6.968,1.743 6.968,2.76 L7.307,31.242 C7.307,32.259 8.324,33.276 9.341,33.276 C10.358,33.276 11.375,32.259 11.375,31.242 L11.036,2.76 C11.036,1.743 11.714,1.065 12.731,1.065 L13.409,1.065 C14.426,1.065 15.104,1.743 15.104,2.76 L15.443,31.242 C15.443,32.259 16.46,33.276 17.477,33.276 L17.477,33.276 C18.494,33.276 19.511,32.259 19.511,31.242 L18.833,2.421 C18.833,1.404 19.511,0.726 20.528,0.726 C21.206,0.726 21.884,1.404 22.223,2.082 C23.24,8.524 27.648,36.667 26.631,43.449 C25.953,47.857 21.545,50.57 18.154,51.587 L22.901,137.372 C23.24,143.475 19.51,148.561 14.424,148.561 C9.338,148.561 5.269,143.475 5.608,137.372 L8.999,51.926 C5.269,50.909 0.861,48.535 0.183,43.788 C-0.83,37.346 2.899,8.864 3.917,2.421 Z" id="Shape"></path>
                <path d="M74.783,30.903 C74.783,16.662 66.645,1.065 56.134,1.065 C45.623,1.065 37.146,16.323 37.146,30.564 C37.146,42.771 43.249,50.23 51.387,52.265 L46.64,137.033 C46.301,143.136 50.37,148.222 55.456,148.222 L55.456,148.222 C60.542,148.222 64.611,143.136 64.272,137.033 L60.203,52.604 C68.34,50.57 74.444,43.11 74.783,30.903 Z" id="Shape"></path>
            </g>
        </g>
    </g>
</svg>