<?xml version="1.0" encoding="UTF-8"?>
<svg width="408px" height="512px" viewBox="0 0 408 512" version="1.1" xmlns="http://www.w3.org/2000/svg" xmlns:xlink="http://www.w3.org/1999/xlink">
    <!-- Generator: Sketch 41.2 (35397) - http://www.bohemiancoding.com/sketch -->
    <title>user (1)</title>
    <desc>Created with Sketch.</desc>
    <defs></defs>
    <g id="Page-1" stroke="none" stroke-width="1" fill="none" fill-rule="evenodd">
        <g id="user-(1)">
            <path d="M250.804,51.809 C245.36,46.39 239.517,41.486 233.301,37.175 C212.592,22.76 187.752,14.73 159.515,14.73 C131.291,14.73 106.438,22.761 85.731,37.175 C78.845,41.962 72.411,47.458 66.464,53.61 C34.957,86.172 17.119,136.829 17.119,196.546 C17.119,266.693 73.644,311.245 73.644,311.245 L108.836,281.327 C84.791,265.052 68.985,237.524 68.985,206.303 L68.985,143.646 L250.043,143.646 L250.043,206.305 C250.043,237.525 234.239,265.052 210.196,281.327 L245.397,311.248 C245.397,311.248 301.911,268.841 301.911,196.549 C301.912,135.736 283.404,84.294 250.804,51.809 Z" id="Shape" fill="#F4B2B0"></path>
            <g id="Group" fill="#B3404A">
                <path d="M386.578,342.511 C381.77,335.949 372.552,334.526 365.99,339.334 C359.426,344.142 358.004,353.358 362.811,359.922 C372.531,373.189 377.667,388.926 377.667,405.432 C377.667,447.949 343.077,482.541 300.558,482.541 C258.039,482.541 223.449,447.95 223.449,405.432 C223.449,366.475 252.559,333.569 291.162,328.889 C299.238,327.909 304.992,320.57 304.014,312.493 C303.034,304.418 295.684,298.654 287.618,299.643 C283.725,300.114 279.913,300.818 276.17,301.693 C294.162,280.694 316.638,244.807 316.638,196.548 C316.638,132.108 296.949,77 261.191,41.369 C255.093,35.299 248.532,29.816 241.711,25.085 C217.8,8.44 190.145,0 159.515,0 C128.885,0 101.229,8.44 77.322,25.082 C69.695,30.386 62.479,36.54 55.878,43.369 C21.385,79.016 2.39,133.416 2.39,196.548 C2.39,242.31 23.766,277.825 41.459,299.387 C16.252,322.958 0.868,357.709 0.868,397.103 L0.868,482.776 C0.868,490.911 7.463,497.506 15.598,497.506 L174.538,497.506 C182.673,497.506 189.268,490.911 189.268,482.776 C189.268,474.641 182.673,468.046 174.538,468.046 L30.329,468.046 L30.329,397.103 C30.329,365.618 42.105,338.492 61.699,320.448 C63.246,321.793 64.246,322.593 64.529,322.817 C67.207,324.928 70.428,325.978 73.645,325.978 C77.045,325.978 80.44,324.806 83.187,322.471 L110.381,299.353 C125.059,307.136 141.777,311.565 159.516,311.565 C177.258,311.565 193.978,307.134 208.657,299.35 L234.798,321.568 C209.828,341.197 193.994,371.667 193.994,405.432 C193.994,464.195 241.799,512 300.562,512 C359.325,512 407.13,464.192 407.13,405.43 C407.128,382.62 400.022,360.862 386.578,342.511 Z M233.003,224.886 C232.648,226.291 232.253,227.683 231.82,229.06 C231.739,229.316 231.645,229.567 231.561,229.822 C231.215,230.881 230.848,231.933 230.456,232.974 C230.262,233.488 230.055,233.996 229.851,234.506 C229.549,235.259 229.235,236.005 228.91,236.748 C228.642,237.358 228.371,237.966 228.087,238.567 C227.813,239.149 227.521,239.723 227.233,240.298 C226.879,240.999 226.532,241.705 226.158,242.394 C226.131,242.443 226.102,242.488 226.077,242.537 C224.94,244.617 223.71,246.639 222.39,248.597 C222.374,248.621 222.359,248.644 222.344,248.668 C221.699,249.621 221.03,250.558 220.342,251.48 C220.277,251.567 220.212,251.655 220.148,251.742 C216.536,256.548 212.371,260.914 207.741,264.742 C207.712,264.766 207.684,264.789 207.654,264.813 C194.553,275.611 177.779,282.104 159.516,282.104 C141.248,282.104 124.47,275.607 111.367,264.804 C111.343,264.785 111.321,264.766 111.298,264.748 C106.663,260.917 102.491,256.545 98.875,251.731 C98.816,251.651 98.756,251.572 98.697,251.492 C98.006,250.564 97.332,249.621 96.682,248.661 C96.675,248.649 96.666,248.637 96.658,248.624 C95.316,246.637 94.066,244.582 92.912,242.467 C92.9,242.443 92.885,242.421 92.874,242.398 C92.495,241.703 92.145,240.99 91.788,240.28 C91.504,239.713 91.216,239.147 90.947,238.573 C90.66,237.966 90.387,237.352 90.116,236.736 C89.793,236.001 89.483,235.26 89.182,234.513 C88.974,233.999 88.767,233.486 88.571,232.966 C88.182,231.93 87.817,230.886 87.474,229.833 C87.389,229.572 87.293,229.316 87.21,229.054 C86.777,227.677 86.382,226.286 86.027,224.883 C85.972,224.669 85.93,224.45 85.877,224.236 C85.591,223.062 85.332,221.881 85.102,220.692 C85.025,220.294 84.958,219.895 84.887,219.496 C84.706,218.469 84.545,217.437 84.407,216.4 C84.347,215.952 84.288,215.504 84.236,215.055 C84.115,214.015 84.022,212.969 83.944,211.92 C83.913,211.503 83.872,211.088 83.848,210.668 C83.764,209.219 83.712,207.763 83.712,206.301 L83.712,158.372 L235.31,158.372 L235.31,206.301 C235.31,207.764 235.258,209.219 235.175,210.668 C235.151,211.088 235.11,211.502 235.079,211.919 C235.001,212.968 234.908,214.014 234.787,215.054 C234.735,215.505 234.675,215.953 234.616,216.4 C234.478,217.438 234.317,218.471 234.134,219.498 C234.063,219.896 233.997,220.295 233.92,220.691 C233.69,221.883 233.43,223.065 233.144,224.241 C233.1,224.458 233.057,224.674 233.003,224.886 Z M259.262,239.847 C259.526,239.063 259.808,238.289 260.054,237.498 C260.094,237.368 260.126,237.237 260.164,237.108 C262.652,228.993 264.193,220.468 264.636,211.658 C264.726,209.882 264.771,208.096 264.771,206.305 L264.771,143.646 C264.771,135.511 258.175,128.916 250.041,128.916 L68.986,128.916 C60.851,128.916 54.256,135.511 54.256,143.646 L54.256,206.305 C54.256,208.096 54.302,209.881 54.392,211.658 C54.84,220.549 56.4,229.15 58.927,237.33 C58.943,237.385 58.956,237.439 58.973,237.493 C59.244,238.366 59.555,239.222 59.848,240.085 C65.13,255.675 73.999,269.895 85.873,281.518 L74.03,291.584 C59.477,276.8 31.847,242.656 31.847,196.546 C31.847,141.1 47.899,93.975 77.054,63.846 C82.332,58.384 88.079,53.479 94.143,49.264 C113.027,36.122 135.02,29.458 159.515,29.458 C184.01,29.458 206.005,36.122 224.905,49.278 C230.324,53.036 235.543,57.4 240.407,62.242 C270.57,92.3 287.18,139.997 287.18,196.548 C287.18,243.777 259.618,277.345 245.153,291.708 L233.16,281.515 C245.095,269.833 253.99,255.53 259.262,239.847 Z" id="Shape"></path>
                <path d="M337.475,391.038 L315.289,391.038 L315.289,368.852 C315.289,360.717 308.693,354.122 300.559,354.122 C292.425,354.122 285.829,360.717 285.829,368.852 L285.829,391.038 L263.643,391.038 C255.509,391.038 248.913,397.632 248.913,405.768 C248.913,413.904 255.509,420.498 263.643,420.498 L285.829,420.498 L285.829,442.682 C285.829,450.817 292.425,457.412 300.559,457.412 C308.693,457.412 315.289,450.818 315.289,442.682 L315.289,420.498 L337.475,420.498 C345.609,420.498 352.205,413.904 352.205,405.768 C352.205,397.632 345.61,391.038 337.475,391.038 Z" id="Shape"></path>
            </g>
        </g>
    </g>
</svg>