<?xml version="1.0" encoding="UTF-8"?>
<svg width="508px" height="508px" viewBox="0 0 508 508" version="1.1" xmlns="http://www.w3.org/2000/svg" xmlns:xlink="http://www.w3.org/1999/xlink">
    <!-- Generator: Sketch 42 (36781) - http://www.bohemiancoding.com/sketch -->
    <title>wallet</title>
    <desc>Created with Sketch.</desc>
    <defs></defs>
    <g id="Page-1" stroke="none" stroke-width="1" fill="none" fill-rule="evenodd">
        <g id="wallet" fill-rule="nonzero">
            <path d="M457.778,156.757 L419.278,15.857 C416.178,4.357 404.278,-2.343 392.778,0.757 L53.078,93.557 C41.578,96.657 34.878,108.557 37.978,120.057 L47.978,156.757 L457.778,156.757 Z" id="Shape" fill="#4CDBC4"></path>
            <path d="M82.978,156.757 L401.578,156.757 C406.678,149.757 414.178,144.357 423.178,141.957 L403.678,70.757 C382.378,76.557 360.478,64.057 354.678,42.757 L101.278,111.957 C106.078,129.557 98.078,147.757 82.978,156.757 Z" id="Shape" fill="#F2F2F2"></path>
            <g id="Group" transform="translate(199.000000, 88.000000)" fill="#4CDBC4">
                <circle id="Oval" cx="134.378" cy="40.057" r="14.7"></circle>
                <path d="M97.578,68.757 C97.278,62.957 96.278,56.957 94.678,50.957 C85.278,16.657 57.278,-5.643 32.178,1.257 C8.778,7.657 -3.922,37.057 2.078,68.757 L97.578,68.757 Z" id="Shape"></path>
            </g>
            <path d="M231.478,151.657 C235.078,154.257 239.878,155.557 246.078,155.657 L246.378,156.757 L253.178,156.757 L252.878,155.857 C254.778,155.857 256.378,156.257 257.678,156.757 L272.478,156.757 C271.178,152.557 268.978,149.257 265.778,147.057 C262.378,144.657 256.978,143.557 249.478,143.557 L244.778,126.457 C247.978,126.957 250.278,128.757 251.978,132.057 L262.678,127.557 C260.678,123.357 257.978,120.357 254.578,118.557 C251.078,116.657 246.978,116.157 242.178,116.857 L240.978,112.557 L234.678,114.257 L235.878,118.557 C230.978,120.457 227.478,123.357 225.378,127.457 C223.178,131.557 222.878,135.957 224.178,140.757 C225.478,145.457 227.878,149.057 231.478,151.657 Z M235.278,132.157 C235.878,130.457 236.978,129.057 238.578,128.057 L242.678,143.157 C240.578,142.857 238.878,142.157 237.578,141.157 C236.278,140.057 235.378,138.757 234.978,137.257 C234.478,135.557 234.578,133.857 235.278,132.157 Z" id="Shape" fill="#F2F2F2"></path>
            <g id="Group" transform="translate(0.000000, 154.000000)" fill="#334A5E">
                <path d="M499.478,57.957 L499.478,21.457 C499.478,9.757 489.978,0.157 478.178,0.157 L22.178,0.157 C10.478,0.157 0.878,9.657 0.878,21.457 L0.878,57.957 L499.478,57.957 Z" id="Shape"></path>
                <path d="M0.878,296.157 L0.878,332.657 C0.878,344.357 10.378,353.957 22.178,353.957 L478.178,353.957 C489.878,353.957 499.478,344.457 499.478,332.657 L499.478,296.157 L0.878,296.157 Z" id="Shape"></path>
            </g>
            <g id="Group" transform="translate(0.000000, 211.000000)" fill="#40596B">
                <polygon id="Shape" points="64.678 296.957 64.678 296.957 435.678 296.957 435.678 296.957"></polygon>
                <path d="M499.078,0.957 L1.178,0.957 C0.978,2.957 0.878,4.957 0.878,6.957 L0.878,233.157 C0.878,235.157 0.978,237.157 1.178,239.157 L499.078,239.157 C499.278,237.157 499.378,235.157 499.378,233.157 L499.378,6.957 C499.478,4.957 499.278,2.957 499.078,0.957 Z" id="Shape"></path>
            </g>
            <path d="M507.078,288.357 L507.078,373.757 L425.578,373.757 L424.178,373.757 C403.778,373.057 386.978,358.157 383.578,338.557 C383.078,336.157 382.878,333.657 382.878,331.157 C382.878,319.357 387.678,308.757 395.378,300.957 C403.078,293.157 413.778,288.457 425.578,288.457 L507.078,288.457 L507.078,288.357 Z" id="Shape" fill="#ACB3BA"></path>
            <circle id="Oval" fill="#FFFFFF" cx="428.978" cy="331.057" r="26.8"></circle>
        </g>
    </g>
</svg>